<?xml version="1.0" encoding="utf-8"?>
<!-- Generator: Adobe Illustrator 23.0.3, SVG Export Plug-In . SVG Version: 6.00 Build 0)  -->
<svg version="1.0" id="Capa_1" xmlns="http://www.w3.org/2000/svg" xmlns:xlink="http://www.w3.org/1999/xlink" x="0px" y="0px"
	 viewBox="0 0 512 339.7" enable-background="new 0 0 512 339.7" xml:space="preserve">
<g>
	<g>
		<g>
			<path d="M188.8,266c-2.8,1.6-3.8,4-5.4,5.8c-3.6,4.2-7.3,8.3-10.9,12.5c-6.7,7.8-13.5,15.5-20.1,23.4c-5,6-16.9,5.3-21.3-1
				c-6.1-8.9-5.9-14.2,1.1-22.7c6.6-8,13.5-15.8,20.3-23.6c7.5-8.7,15-17.4,22.5-26.1c2.7-3.1,5.3-6.1,8-9.2c0.9-1,1.8-2.1,3-2.3
				c2.8-0.4,3.2-2.1,2.9-4.5c-0.1-0.9,0-1.8,0-2.7c0.1-13.8-0.1-27.5-4-41.1c-4.1-14.5-1.8-29.3,3-43.6c0.6-1.8,1-3.6,1-5.5
				c0-29.7,0-59.4,0-89.1c0-4.4,0-4.4,4.4-4.4c66.1,0,132.2,0,198.4,0c4.3,0,4.4,0,4.4,4.2c0,91.3,0,182.7,0,274
				c0,4.5,0,4.5-4.5,4.5c-66.1,0-132.2,0-198.4,0c-4.2,0-4.3,0-4.3-4.4c0-13.5,0-27,0-40.5C188.8,268.7,188.8,267.6,188.8,266z
				 M308.9,95.4c1.2,1.7,2.5,3.1,3.9,4.3c3.2,2.9,6.5,5.9,8.7,9.7c1.2,2,2.4,2.5,4.5,2.5c11-0.1,22,0,33.1,0c1,0,2,0.1,3,0.2
				c1,0.1,1.6,0.8,1.6,1.8c0,1.2-0.7,1.8-1.9,1.9c-0.8,0-1.6,0-2.4,0c-9.7,0-19.5,0-29.2,0c-4.2,0-4.1,0-2.3,3.6
				c1.3,2.5,2.4,5,3.4,7.6c0.7,2.1,2,2.6,4,2.6c7.9-0.1,15.9-0.1,23.8,0c1.6,0,4.2-1,4.3,1.7c0.1,2.7-2.6,2.1-4.3,2.2
				c-7.1,0.1-14.3,0-21.4,0c-4,0-4,0-2.9,3.7c0.4,1.3,0.8,2.7,1.1,4c1.4,6.3,1.4,6.3,7.8,6.3c5.8,0,11.5,0,17.3,0
				c1.2,0,2.6,0.1,2.7,1.7c0.1,1.7-1.3,2-2.6,2.2c-0.8,0.1-1.6,0-2.4,0c-6.3,0-12.5,0-18.8,0c-1.8,0-2.5,0.4-2.3,2.4
				c0.2,2.8,0.3,5.6,0.1,8.3c-0.1,2.1,0.6,2.9,2.7,2.7c1.7-0.1,3.4,0,5.1,0c5.2,0,10.3,0,15.5,0c1.4,0,2.8,0.2,2.8,1.9
				c0,1.8-1.5,1.9-2.8,2c-0.8,0.1-1.6,0-2.4,0c-6.3,0-12.5,0.1-18.8,0c-2,0-2.8,0.7-3,2.6c-1.8,14.1-7.3,26.7-15.8,38
				c-9,11.8-20.8,20.2-34.6,25.7c-6.5,2.6-13.3,3.9-20.3,4.2c-2.5,0.1-3.4,1-3.3,3.6c0.1,13.6,0.1,27.2,0.1,40.8
				c0,6.9,0,6.8,6.8,6.4c1.7-0.1,2.2-0.8,2.2-2.4c-0.1-3.2,0.1-6.4-0.1-9.5c-0.2-2.8,1-3.7,3.7-3.6c3.1,0.2,6.2,0.2,9.2,0
				c2.7-0.1,3.6,1.1,3.5,3.5c-0.1,2.3,0,4.6,0,6.8c0.1,5.6-0.8,4.8,5.1,5.1c3.2,0.2,3.7-1,3.7-3.9c-0.2-11.1,0-22.2-0.1-33.4
				c0-2.8,1-4,3.9-3.8c2.9,0.2,5.8,0,8.6,0c3.6,0,3.9,0.3,3.9,3.9c0,10.7,0,21.4,0,32.2c0,5.3-0.8,4.8,5,4.9c3.9,0,3.9,0,3.9-3.9
				c0-16,0-32,0-48c0-1.1,0-2.2,0.1-3.3c0.1-1.6,0.9-2.5,2.6-2.5c3.6,0.1,7.1,0.1,10.7,0c1.8,0,2.5,0.9,2.7,2.5c0.1,1,0.1,2,0.1,3
				c0,16.3,0,32.6,0,48.8c0,1-0.5,2.6,0.7,3c2.4,0.7,5,0.8,7.3,0.1c1.9-0.6,0.9-2.8,0.9-4.2c0.1-22.7,0-45.5,0-68.2
				c0-4.3,0.1-4.4,4.6-4.4c2.3,0,4.6,0,6.9,0c4.6,0,4.9,0.3,4.9,4.9c0,22.3,0,44.7,0,67c0,5,0,5,4.9,5.3c0.4,0,0.8,0,1.2,0.1
				c1,0.1,1.6,0.8,1.7,1.8c0.1,1.1-0.6,1.7-1.6,1.8c-1.1,0.2-2.2,0.2-3.3,0.2c-51.1,0-102.3,0-153.4,0c-0.8,0-1.6,0-2.4-0.1
				c-1.3-0.1-2.4-0.5-2.3-2.1c0.1-1.5,1.1-1.7,2.3-1.7c2.3,0,4.6-0.2,6.8,0c2.8,0.3,3.5-0.8,3.4-3.5c-0.1-11.2,0-22.4-0.1-33.7
				c0-2.8,1-4,3.8-3.9c2.9,0.2,5.8,0,8.6,0c3.6,0,4,0.3,4,3.9c0,10.3,0,20.6,0,31c0,6.4,0,6.4,6.4,6.1c1.8-0.1,2.5-0.6,2.5-2.4
				c0-15.7,0-31.4,0-47.1c0-1.7-0.7-2.4-2.3-2.7c-2.5-0.5-5.1-1-7.5-2c-6.9-2.7-13.5-6-19.7-10.1c-0.9-0.6-1.9-1.7-3.1-0.3
				c-2.3,2.7-4.9,5.1-7,8.1c-1,1.5-1.1,2.3-0.1,3.8c1.4,2.1,1.2,4.5-0.1,6.8c-2.6,4.6-6.8,7.8-9.9,11.8c-1.8,2.4-4.4,4.4-4.4,8.1
				c0.1,14.6,0.1,29.2,0,43.8c0,2.6,0.8,3.3,3.4,3.3c64.3-0.1,128.7-0.1,193,0c2.7,0,3.3-0.7,3.3-3.3c-0.1-89.3-0.1-178.5,0-267.8
				c0-2.6-0.6-3.5-3.4-3.5c-64.2,0.1-128.5,0.1-192.7,0c-2.7,0-3.5,0.7-3.5,3.5c0.1,25.3,0,50.6,0.1,75.9c0,0.9-0.5,2,0.8,2.8
				c0.5-0.8,1-1.5,1.5-2.2c4.4-7.6,10.3-14.1,16.7-19.9c6.3-5.7,13.9-9.5,21.6-12.8c9-3.8,18.7-5,28.5-5c13.6,0,26.1,3.9,37.7,11
				c1.9,1.2,3.9,1.7,6.2,1.7c17.7-0.1,35.3,0,53,0c1,0,2,0,3,0.1c1.2,0.1,2.1,0.7,2,2.1c-0.1,1.2-0.9,1.7-2.1,1.7
				c-0.9,0-1.8,0-2.7,0c-15.5,0-31,0-46.5,0C311.3,95,310.2,94.8,308.9,95.4z M333.8,161.4c0-18-4.3-32.3-12.7-45.5
				c-4.8-7.6-11.1-13.9-18.1-19.4c-8.5-6.6-18.4-10.5-28.8-12.7c-11.5-2.5-23.1-2.1-34.5,2.1c-8.8,3.2-17.2,6.7-24.5,12.8
				c-6.3,5.2-11.6,11.1-15.9,17.9c-9.9,15.6-13.9,32.7-11.8,51.1c2.5,22.9,13.4,41.1,31.8,54.8c7.9,5.9,17.1,9.1,26.5,11.4
				c11.2,2.8,22.4,2.1,33.6-1.3c15.6-4.8,28.4-13.1,38.3-26.1C328.3,192.4,333.5,176.5,333.8,161.4z M140.9,307.9
				c2.1-0.2,3.3-0.2,4.7-1c5.5-3.2,8.9-8.3,12.9-12.9c7.8-8.9,15.5-18,23.4-26.9c7-8,14-16.1,20.9-24.3c1.5-1.8,1.5-3.3-0.2-4.9
				c-3.5-3.2-6.8-6.6-10.3-9.8c-3.3-3.1-4.3-3.1-7.2,0.3c-8.6,10-17.2,20.2-25.8,30.2c-6,7-12.2,13.8-18.3,20.7
				c-2.8,3.2-5.6,6.4-8.1,9.8c-2.8,3.8-2.8,8-0.8,12.1C133.9,305.3,137.6,306.9,140.9,307.9z M351.3,253.2c0,11.2,0.1,22.4-0.1,33.6
				c0,2.4,0.8,3.3,3.1,3c0.6-0.1,1.2-0.1,1.8,0c2.9,0.4,3.9-0.6,3.9-3.7c-0.1-21.3,0-42.7-0.1-64c0-6.1,1-5.4-5.6-5.6
				c-2.3-0.1-3.1,0.6-3.1,3C351.3,230.7,351.3,241.9,351.3,253.2z M250.2,264.4c0,6.7,0,13.5,0,20.2c0,6.1-0.5,5,5.2,5.3
				c3.1,0.2,3.6-1.1,3.5-3.7c-0.1-13.7,0-27.4-0.1-41.1c0-6.6,1.1-5.5-5.8-6.1c-2.3-0.2-2.9,0.5-2.9,2.8
				C250.3,249.3,250.2,256.9,250.2,264.4z M233.7,271.3c0-4.3,0-8.5,0-12.8c0-5.9,0-5.8-5.8-5.8c-2.2,0-2.9,0.7-2.9,2.9
				c0.1,9.4,0,18.8,0,28.2c0,6.3,0,6.2,6.3,6c1.8-0.1,2.4-0.7,2.4-2.5C233.6,282,233.7,276.7,233.7,271.3z M309.3,271.3
				c0-4.4,0-8.7,0-13.1c0-5.6,0-5.5-5.8-5.5c-2.2,0-2.9,0.6-2.9,2.9c0.1,9.4,0,18.8,0.1,28.2c0.1,6.7-1.5,5.9,6.2,6
				c1.8,0,2.4-0.6,2.4-2.4C309.3,282,309.3,276.7,309.3,271.3z M192.9,224.4c3.5-4,6.4-7.3,9.3-10.6c0.5-0.5,0.5-1,0.1-1.6
				c-3-4.2-6-8.5-9.4-13.3C192.9,207.5,192.9,215.5,192.9,224.4z M211.5,221.8c-1-2.1-3-3.2-4.4-4.9c-0.9-1.1-1.7-1.1-2.6,0
				c-1.4,1.9-2.9,3.7-4.4,5.5c-3.8,4.4-3.8,4.4,0.8,8.3c1.1,0.9,1.8,1.2,2.9,0c2.2-2.6,4.5-5,6.7-7.5
				C210.8,222.8,211.1,222.3,211.5,221.8z"/>
			<path d="M297.9,64.1c20.4,0,40.9,0,61.3,0c0.8,0,1.6,0,2.4,0c1.2,0,1.9,0.7,2,1.8c0.1,1.2-0.8,1.8-1.8,2
				c-0.7,0.2-1.6,0.1-2.4,0.1c-41.1,0-82.1,0-123.2,0c-0.4,0-0.8,0-1.2,0c-1.5,0-3.1-0.3-3-2.1c0-1.8,1.6-1.9,3.1-1.9
				C256.1,64.1,277,64.1,297.9,64.1z"/>
			<path d="M193.6,158.4c-0.1-12.3,2.9-23.6,8.9-34.3c6-10.7,14.1-19.1,24.7-25.4c20.2-12.1,41.3-12.7,61.8-2.5
				c21.6,10.7,33.9,29.1,37.3,53.1c2.6,18.3-1.5,35.1-11.8,50.2c-5.7,8.4-13,14.9-21.9,20.1c-19.2,11.1-39.2,12-58.9,3
				c-22.6-10.3-35.5-28.9-39.4-53.5C193.8,165.6,193.6,162,193.6,158.4z M260.1,224.5c4.6,0.2,9.2-0.5,13.8-1.3
				c3.5-0.7,6.6-2.3,9.9-3.7c12.2-5.1,21.6-13.2,28.7-24.3c7.9-12.4,11.4-25.7,10.5-40.4c-1.2-18.6-9-34-22.6-46.6
				c-5.7-5.3-12.7-9-19.9-11.5c-14.6-5.1-29.4-5.2-43.8,1.6c-7.2,3.4-13.9,7.2-19.6,13c-7,7.1-12.4,15.1-15.7,24.5
				c-7.7,22.1-4.6,43,8.4,62.3c7.9,11.8,19.5,19.2,32.7,23.9C248.2,224,254.1,224.7,260.1,224.5z"/>
		</g>
	</g>
	<g>
		<path fill="#737373" d="M24.7,145.7H12.1v-8.9H48v8.9H35.2v37.9H24.7V145.7z"/>
		<path fill="#737373" d="M49.5,160.8c0-5-0.1-8.3-0.3-11.2h9l0.4,6.2H59c1.7-5,5.8-7.1,9.2-7.1c1,0,1.5,0.1,2.2,0.2v9.9
			c-0.8-0.1-1.7-0.3-2.8-0.3c-3.9,0-6.5,2.1-7.2,5.3c-0.1,0.7-0.2,1.5-0.2,2.4v17.2H49.5V160.8z"/>
		<path fill="#737373" d="M103.4,175.4c0,3.2,0.1,6.3,0.6,8.2h-9.5l-0.6-3.4h-0.2c-2.2,2.7-5.7,4.2-9.7,4.2c-6.9,0-11-5-11-10.4
			c0-8.8,7.9-13,19.9-13v-0.4c0-1.9-1-4.4-6.2-4.4c-3.5,0-7.1,1.2-9.4,2.6l-1.9-6.8c2.4-1.3,7-3.1,13.2-3.1
			c11.3,0,14.8,6.7,14.8,14.7V175.4z M93.2,167.5c-5.5,0-9.9,1.3-9.9,5.3c0,2.7,1.8,4,4.2,4c2.6,0,4.8-1.7,5.5-3.9
			c0.1-0.6,0.2-1.2,0.2-1.8V167.5z"/>
		<path fill="#737373" d="M137.2,182.7c-1.9,0.9-5.4,1.6-9.4,1.6c-11,0-18-6.7-18-17.3c0-9.9,6.8-18,19.4-18c2.8,0,5.8,0.5,8,1.3
			l-1.7,7.8c-1.2-0.6-3.1-1-5.9-1c-5.5,0-9.2,4-9.1,9.5c0,6.2,4.2,9.5,9.3,9.5c2.5,0,4.4-0.4,6-1.1L137.2,182.7z"/>
		<path fill="#737373" d="M153.6,163.9h0.1c0.8-1.5,1.6-2.8,2.4-4.1l6.9-10.2h12.7l-12.1,13.7l13.9,20.2h-13l-8.3-13.9l-2.6,3.3
			v10.6h-10.5v-49.3h10.5V163.9z"/>
	</g>
	<g>
		<path fill="#737373" d="M414.2,137.6v26.9c0,8.1,3.1,12.2,8.5,12.2c5.6,0,8.6-3.9,8.6-12.2v-26.9h10.5v26.2
			c0,14.4-7.3,21.3-19.5,21.3c-11.8,0-18.7-6.6-18.7-21.4v-26.1H414.2z"/>
		<path fill="#737373" d="M450.6,161.8c0-4.4-0.1-8.2-0.3-11.4h9.2l0.5,4.7h0.1c2.5-3.5,6.4-5.5,11.3-5.5c7.4,0,14.1,6.5,14.1,17.3
			c0,12.4-7.8,18.2-15.4,18.2c-4.1,0-7.3-1.7-8.8-3.9h-0.1v16.9h-10.5V161.8z M461.1,169.7c0,0.8,0.1,1.5,0.2,2.2
			c0.7,2.8,3.1,5,6.2,5c4.6,0,7.3-3.8,7.3-9.6c0-5.4-2.4-9.5-7.1-9.5c-3,0-5.6,2.2-6.3,5.3c-0.1,0.6-0.2,1.2-0.2,1.9V169.7z"/>
	</g>
	<g>
		<path fill="#7ED957" d="M256.7,165.5c-0.2-5.6-0.4-12.4-0.4-19.2h-0.1c-1.5,6-3.5,12.6-5.3,18.1l-5.7,18.2h-8.3l-5-18
			c-1.5-5.6-3.1-12.2-4.2-18.3h-0.1c-0.2,6.3-0.5,13.5-0.8,19.4l-0.9,17.8h-9.8l3-46.8h14.1l4.6,15.6c1.5,5.4,2.9,11.2,4,16.7h0.3
			c1.2-5.4,2.8-11.6,4.4-16.8l4.9-15.5h13.9l2.5,46.8h-10.3L256.7,165.5z"/>
		<path fill="#7ED957" d="M283.8,169.8c0.3,4.4,4.6,6.5,9.6,6.5c3.6,0,6.5-0.5,9.4-1.5l1.4,7.1c-3.5,1.5-7.7,2.2-12.3,2.2
			c-11.5,0-18.1-6.7-18.1-17.3c0-8.6,5.3-18.1,17.1-18.1c11,0,15.1,8.5,15.1,16.9c0,1.8-0.2,3.4-0.3,4.2H283.8z M296.2,162.6
			c0-2.6-1.1-6.9-6-6.9c-4.4,0-6.2,4.1-6.5,6.9H296.2z"/>
	</g>
</g>
</svg>
